<svg width="26" height="34" viewBox="0 0 26 34" fill="none" xmlns="http://www.w3.org/2000/svg">
<path d="M4 34C2.93913 34 1.92172 33.5786 1.17157 32.8284C0.421427 32.0783 0 31.0609 0 30V4C0 2.93914 0.421427 1.92172 1.17157 1.17157C1.92172 0.421427 2.93913 0 4 0H22C23.0609 0 24.0783 0.421427 24.8284 1.17157C25.5786 1.92172 26 2.93914 26 4V30C26 31.0609 25.5786 32.0783 24.8284 32.8284C24.0783 33.5786 23.0609 34 22 34H4ZM17 27L17.82 24.82L20 24L17.82 23.18L17 21L16.18 23.18L14 24L16.18 24.82L17 27ZM11.036 25.102L12.94 19.98L18 18.052L12.94 16.124L11.036 11L9.132 16.124L4.072 18.052L9.132 19.98L11.036 25.102ZM18 15L19.094 12.094L22 11L19.094 9.906L18 7L16.906 9.906L14 11L16.906 12.094L18 15Z" fill="#81B734"/>
</svg>
