<svg width="28" height="28" viewBox="0 0 28 28" fill="none" xmlns="http://www.w3.org/2000/svg">
<path fill-rule="evenodd" clip-rule="evenodd" d="M17.4974 2.33398C17.907 2.33399 18.3093 2.44181 18.664 2.64661C19.0187 2.8514 19.3133 3.14595 19.5181 3.50065H20.9974C21.6162 3.50065 22.2097 3.74648 22.6473 4.18407C23.0849 4.62165 23.3307 5.21515 23.3307 5.83398V19.834C23.3307 21.3811 22.7161 22.8648 21.6222 23.9588C20.5282 25.0527 19.0445 25.6673 17.4974 25.6673H6.9974C6.37856 25.6673 5.78506 25.4215 5.34748 24.9839C4.90989 24.5463 4.66406 23.9528 4.66406 23.334V5.83398C4.66406 5.21515 4.90989 4.62165 5.34748 4.18407C5.78506 3.74648 6.37856 3.50065 6.9974 3.50065H8.47673C8.68152 3.14595 8.97606 2.8514 9.33076 2.64661C9.68546 2.44181 10.0878 2.33399 10.4974 2.33398H17.4974ZM17.2921 10.9428L12.3431 15.893L10.6922 14.2422C10.4722 14.0296 10.1775 13.912 9.87159 13.9147C9.5657 13.9174 9.27308 14.0401 9.05677 14.2564C8.84046 14.4727 8.71777 14.7653 8.71511 15.0712C8.71245 15.3771 8.83004 15.6718 9.04256 15.8918L11.4342 18.2847C11.5534 18.4039 11.6949 18.4985 11.8506 18.563C12.0064 18.6275 12.1733 18.6607 12.3419 18.6607C12.5105 18.6607 12.6774 18.6275 12.8331 18.563C12.9889 18.4985 13.1304 18.4039 13.2496 18.2847L18.9429 12.5925C19.0512 12.4841 19.1371 12.3554 19.1957 12.2138C19.2543 12.0722 19.2844 11.9205 19.2844 11.7672C19.2843 11.614 19.2541 11.4623 19.1954 11.3207C19.1367 11.1792 19.0507 11.0506 18.9423 10.9422C18.8339 10.8339 18.7052 10.748 18.5637 10.6894C18.4221 10.6308 18.2703 10.6007 18.1171 10.6007C17.9638 10.6008 17.8121 10.631 17.6705 10.6897C17.529 10.7484 17.4004 10.8344 17.2921 10.9428ZM16.9141 4.66732H11.0807C10.9442 4.66727 10.812 4.71512 10.7071 4.80252C10.6022 4.88993 10.5313 5.01135 10.5067 5.14565L10.4974 5.25065V6.41732C10.4973 6.55385 10.5452 6.68607 10.6326 6.79095C10.72 6.89584 10.8414 6.96674 10.9757 6.99132L11.0807 7.00065H16.9141C17.0506 7.0007 17.1828 6.95285 17.2877 6.86545C17.3926 6.77804 17.4635 6.65662 17.4881 6.52232L17.4974 6.41732V5.25065C17.4974 5.11412 17.4496 4.9819 17.3622 4.87702C17.2748 4.77213 17.1534 4.70123 17.0191 4.67665L16.9141 4.66732Z" fill="black"/>
</svg>
