<svg width="16" height="16" viewBox="0 0 16 16" fill="none" xmlns="http://www.w3.org/2000/svg">
<path d="M12.2972 14.734C11.6812 14.916 10.9532 15 10.0992 15H5.89917C5.04517 15 4.31717 14.916 3.70117 14.734C3.85517 12.914 5.72417 11.479 7.99918 11.479C10.2742 11.479 12.1432 12.914 12.2972 14.734Z" stroke="white" stroke-linecap="round" stroke-linejoin="round"/>
<path d="M10.1 1H5.90001C2.4 1 1 2.4 1 5.90001V10.1C1 12.746 1.798 14.195 3.702 14.734C3.856 12.914 5.72501 11.479 8.00001 11.479C10.275 11.479 12.144 12.914 12.298 14.734C14.202 14.195 15 12.746 15 10.1V5.90001C15 2.4 13.6 1 10.1 1ZM8.00001 9.51901C6.61401 9.51901 5.49401 8.39201 5.49401 7.00601C5.49401 5.62001 6.61401 4.50001 8.00001 4.50001C9.38601 4.50001 10.506 5.62001 10.506 7.00601C10.506 8.39201 9.38601 9.51901 8.00001 9.51901Z" stroke="white" stroke-linecap="round" stroke-linejoin="round"/>
<path d="M10.5061 7.006C10.5061 8.39201 9.38615 9.51901 8.00014 9.51901C6.61414 9.51901 5.49414 8.39201 5.49414 7.006C5.49414 5.62 6.61414 4.5 8.00014 4.5C9.38615 4.5 10.5061 5.62 10.5061 7.006Z" stroke="white" stroke-linecap="round" stroke-linejoin="round"/>
</svg>
