<svg width="23" height="28" viewBox="0 0 23 28" fill="none" xmlns="http://www.w3.org/2000/svg">
<path d="M11.2 14C11.97 14 12.6294 13.7256 13.1782 13.1768C13.727 12.628 14.0009 11.9691 14 11.2C14 10.43 13.7256 9.7706 13.1768 9.2218C12.628 8.673 11.9691 8.39907 11.2 8.4C10.43 8.4 9.7706 8.6744 9.2218 9.2232C8.673 9.772 8.39907 10.4309 8.4 11.2C8.4 11.97 8.6744 12.6294 9.2232 13.1782C9.772 13.727 10.4309 14.0009 11.2 14ZM11.2 24.29C14.0467 21.6767 16.1583 19.3023 17.535 17.1668C18.9117 15.0313 19.6 13.1357 19.6 11.48C19.6 8.93667 18.7889 6.8544 17.1668 5.2332C15.5447 3.612 13.5557 2.80093 11.2 2.8C8.84333 2.8 6.85393 3.61107 5.2318 5.2332C3.60967 6.85533 2.79907 8.9376 2.8 11.48C2.8 13.1367 3.48833 15.0327 4.865 17.1682C6.24167 19.3037 8.35333 21.6776 11.2 24.29ZM11.2 28C7.44333 24.8033 4.63773 21.8344 2.7832 19.0932C0.928667 16.352 0.000933333 13.8143 0 11.48C0 7.98 1.12607 5.19167 3.3782 3.115C5.63033 1.03833 8.2376 0 11.2 0C14.1633 0 16.7711 1.03833 19.0232 3.115C21.2753 5.19167 22.4009 7.98 22.4 11.48C22.4 13.8133 21.4723 16.3511 19.6168 19.0932C17.7613 21.8353 14.9557 24.8043 11.2 28Z" fill="white"/>
</svg>
